<?xml version="1.0" ?>
<!-- Uploaded to: SVG Repo, www.svgrepo.com, Generator: SVG Repo Mixer Tools -->
<svg width="800px" height="800px" viewBox="0 0 64 64" id="Layer_1" version="1.1" xml:space="preserve" xmlns="http://www.w3.org/2000/svg" xmlns:xlink="http://www.w3.org/1999/xlink">
<style type="text/css">
	.st0{fill:#FFFFFF;}
	.st1{fill:#101820;}
</style>
<g>
<g>
<circle class="st0" cx="32" cy="32" r="32"/>
</g>
<g>
<path class="st1" d="M42.268,14.5c-0.276,0-0.5-0.224-0.5-0.5c0-0.827-0.673-1.5-1.5-1.5c-0.534,0-1.032,0.287-1.3,0.75    c-0.138,0.239-0.446,0.322-0.683,0.183c-0.239-0.138-0.321-0.444-0.183-0.683c0.445-0.771,1.275-1.25,2.165-1.25    c1.379,0,2.5,1.121,2.5,2.5C42.768,14.276,42.544,14.5,42.268,14.5z"/>
</g>
<g>
<path class="st1" d="M42.268,14.5c-0.276,0-0.5-0.224-0.5-0.5c0-1.379,1.121-2.5,2.5-2.5c0.89,0,1.72,0.479,2.165,1.25    c0.139,0.238,0.057,0.545-0.183,0.683c-0.237,0.139-0.544,0.056-0.683-0.183c-0.268-0.463-0.766-0.75-1.3-0.75    c-0.827,0-1.5,0.673-1.5,1.5C42.768,14.276,42.544,14.5,42.268,14.5z"/>
</g>
<g>
<path class="st1" d="M43.268,14.5h-2c-0.276,0-0.5-0.224-0.5-0.5s0.224-0.5,0.5-0.5h2c0.276,0,0.5,0.224,0.5,0.5    S43.544,14.5,43.268,14.5z"/>
</g>
<g>
<path class="st1" d="M50,51.5c-0.276,0-0.5-0.224-0.5-0.5V24.38l-17.486-4.857L14.5,25.36V51c0,0.276-0.224,0.5-0.5,0.5    s-0.5-0.224-0.5-0.5V25c0-0.215,0.138-0.406,0.342-0.475l18-6c0.095-0.031,0.194-0.035,0.292-0.007l18,5    C50.351,23.578,50.5,23.775,50.5,24v27C50.5,51.276,50.276,51.5,50,51.5z"/>
</g>
<g>
<path class="st1" d="M14,35.5c-0.112,0-0.224-0.038-0.313-0.11C13.568,35.295,13.5,35.151,13.5,35v-3    c0-0.225,0.149-0.422,0.366-0.481l18-5c0.079-0.022,0.162-0.024,0.242-0.007l18,4C50.337,30.563,50.5,30.766,50.5,31v3    c0,0.147-0.064,0.286-0.177,0.382s-0.26,0.139-0.405,0.111l-17.904-2.984l-17.905,3.979C14.072,35.496,14.036,35.5,14,35.5z     M14.5,32.38v1.997l17.392-3.865c0.061-0.015,0.127-0.017,0.19-0.005L49.5,33.41v-2.009l-17.486-3.886L14.5,32.38z"/>
</g>
<g>
<g>
<path class="st1" d="M24,39.389c-0.122,0-0.241-0.045-0.334-0.128c-0.105-0.095-0.166-0.229-0.166-0.372v-3.111     c0-0.234,0.163-0.438,0.392-0.488l2-0.444c0.149-0.031,0.304,0.004,0.421,0.099c0.119,0.095,0.188,0.238,0.188,0.39v3.334     c0,0.255-0.191,0.469-0.445,0.497l-2,0.222C24.037,39.388,24.019,39.389,24,39.389z M24.5,36.179v2.151l1-0.11v-2.264     L24.5,36.179z"/>
</g>
<g>
<path class="st1" d="M42,39.611c-0.019,0-0.037-0.001-0.056-0.003l-4-0.444c-0.253-0.028-0.444-0.242-0.444-0.497V35     c0-0.147,0.064-0.286,0.177-0.382c0.112-0.095,0.262-0.136,0.405-0.111l4,0.667c0.241,0.04,0.418,0.249,0.418,0.493v3.444     c0,0.143-0.061,0.277-0.167,0.372C42.241,39.566,42.122,39.611,42,39.611z M38.5,38.22l3,0.333v-2.462l-3-0.501V38.22z"/>
</g>
<g>
<path class="st1" d="M48,40.277c-0.019,0-0.037-0.001-0.055-0.003l-2-0.222c-0.254-0.028-0.445-0.242-0.445-0.497v-3.223     c0-0.147,0.064-0.286,0.177-0.382c0.112-0.095,0.263-0.135,0.405-0.111l2,0.334c0.241,0.04,0.418,0.249,0.418,0.493v3.11     c0,0.143-0.061,0.277-0.166,0.372C48.241,40.232,48.122,40.277,48,40.277z M46.5,39.108l1,0.11v-2.128l-1-0.167V39.108z"/>
</g>
<g>
<path class="st1" d="M16,40.277c-0.122,0-0.241-0.045-0.333-0.127c-0.106-0.096-0.167-0.23-0.167-0.373v-2.222     c0-0.234,0.163-0.438,0.392-0.488l4-0.889c0.15-0.031,0.304,0.003,0.421,0.099c0.119,0.095,0.188,0.238,0.188,0.39v2.666     c0,0.255-0.191,0.469-0.444,0.497l-4,0.444C16.037,40.276,16.019,40.277,16,40.277z M16.5,37.957v1.262l3-0.333V37.29     L16.5,37.957z"/>
</g>
<g>
<path class="st1" d="M34,38.723c-0.019,0-0.037-0.001-0.056-0.003L32,38.503l-1.944,0.217c-0.142,0.014-0.283-0.03-0.389-0.124     c-0.106-0.096-0.167-0.23-0.167-0.373v-3.778c0-0.234,0.163-0.438,0.392-0.488l2-0.444c0.061-0.015,0.127-0.017,0.19-0.005     l2,0.333c0.241,0.04,0.418,0.249,0.418,0.493v3.89c0,0.143-0.061,0.277-0.167,0.373C34.241,38.678,34.122,38.723,34,38.723z      M32,37.5c0.019,0,0.037,0.001,0.056,0.003l1.444,0.161v-2.907l-1.486-0.248L30.5,34.846v2.818l1.444-0.161     C31.963,37.501,31.981,37.5,32,37.5z"/>
</g>
</g>
<g>
<path class="st1" d="M32,51.5c-0.276,0-0.5-0.224-0.5-0.5V41c0-0.276,0.224-0.5,0.5-0.5s0.5,0.224,0.5,0.5v10    C32.5,51.276,32.276,51.5,32,51.5z"/>
</g>
<g>
<path class="st1" d="M32,25.5c-0.276,0-0.5-0.224-0.5-0.5v-6c0-0.276,0.224-0.5,0.5-0.5s0.5,0.224,0.5,0.5v6    C32.5,25.276,32.276,25.5,32,25.5z"/>
</g>
<g>
<path class="st1" d="M12,19.5H8c-0.276,0-0.5-0.224-0.5-0.5s0.224-0.5,0.5-0.5h4c0.276,0,0.5,0.224,0.5,0.5S12.276,19.5,12,19.5z"/>
</g>
<g>
<path class="st1" d="M56,37.5h-3c-0.276,0-0.5-0.224-0.5-0.5s0.224-0.5,0.5-0.5h3c0.276,0,0.5,0.224,0.5,0.5S56.276,37.5,56,37.5z    "/>
</g>
</g>
</svg>